{"title":"Submission 2013  DVDrip Xvid Ac3 MiLLENiUM","uid":8432333,"size":1932315605,"categoryP":"video","categoryS":"movies","magnet":"?xt=urn:btih:e174021e53e460918ee8b7161608364e62b3f527&amp;dn=Submission+2013++DVDrip+Xvid+Ac3+MiLLENiUM&amp;tr=udp%3A%2F%2Ftracker.openbittorrent.com%3A80&amp;tr=udp%3A%2F%2Fopen.demonii.com%3A1337&amp;tr=udp%3A%2F%2Ftracker.coppersurfer.tk%3A6969&amp;tr=udp%3A%2F%2Fexodus.desync.com%3A6969","seeders":0,"leechers":0,"uploader":"Gh0stNet","files":12,"time":1367529366,"description":"General\nComplete name                            : Submission 2013  DVDrip Xvid Ac3 MiLLENiUM.avi\nSource                                   : DVDR L-S [THANKS]\nFormat                                   : AVI\nFormat/Info                              : Audio Video Interleave\nFile size                                : 1.73 GiB\nDuration                                 : 1h 54mn\nOverall bit rate                         : 2 153 Kbps\nWriting application                      : VirtualDubMod 1.5.10.2 (build 2540/release)\nWriting library                          : VirtualDubMod build 2540/release\n\nVideo\nID                                       : 0\nFormat                                   : MPEG-4 Visual\nFormat profile                           : Advanced Simple@L5\nFormat settings, BVOP                    : 2\nFormat settings, QPel                    : No\nFormat settings, GMC                     : No warppoints\nFormat settings, Matrix                  : Default (H.263)\nMuxing mode                              : Packed bitstream\nCodec ID                                 : XVID\nCodec ID/Hint                            : XviD\nDuration                                 : 1h 54mn\nBit rate                                 : 1 695 Kbps\nWidth                                    : 720 pixels\nHeight                                   : 352 pixels\nDisplay aspect ratio                     : 2.045\nFrame rate                               : 25.000 fps\nColor space                              : YUV\nChroma subsampling                       : 4:2:0\nBit depth                                : 8 bits\nScan type                                : Progressive\nCompression mode                         : Lossy\nBits/(Pixel*Frame)                       : 0.268\nStream size                              : 1.36 GiB (79%)\nWriting library                          : XviD 64\n\nAudio\nID                                       : 1\nFormat                                   : AC-3\nFormat/Info                              : Audio Coding 3\nMode extension                           : CM (complete main)\nCodec ID                                 : 2000\nDuration                                 : 1h 54mn\nBit rate mode                            : Constant\nBit rate                                 : 448 Kbps\nChannel(s)                               : 6 channels\nChannel positions                        : Front: L C R, Side: L R, LFE\nSampling rate                            : 48.0 KHz\nBit depth                                : 16 bits\nCompression mode                         : Lossy\nStream size                              : 368 MiB (21%)\nAlignment                                : Split accross interleaves\nInterleave, duration                     : 40 ms (1.00 video frame)\nInterleave, preload duration             : 500 ms\n\nScreens: &lt;a href=&quot;\nhttp://i.imgur.com/LN9WbxM.png&quot; rel=&quot;nofollow&quot; target=&quot;_NEW&quot;&gt;\nhttp://i.imgur.com/LN9WbxM.png&lt;/a&gt; &lt;a href=&quot;\nhttp://i.imgur.com/pe5SUI7.png&quot; rel=&quot;nofollow&quot; target=&quot;_NEW&quot;&gt;\nhttp://i.imgur.com/pe5SUI7.png&lt;/a&gt; &lt;a href=&quot;\nhttp://i.imgur.com/LEk4Fb0.png&quot; rel=&quot;nofollow&quot; target=&quot;_NEW&quot;&gt;\nhttp://i.imgur.com/LEk4Fb0.png&lt;/a&gt; &lt;a href=&quot;\nhttp://i.imgur.com/36LLv7r.png&quot; rel=&quot;nofollow&quot; target=&quot;_NEW&quot;&gt;\nhttp://i.imgur.com/36LLv7r.png&lt;/a&gt; &lt;a href=&quot;\nhttp://i.imgur.com/BFYgn93.png&quot; rel=&quot;nofollow&quot; target=&quot;_NEW&quot;&gt;\nhttp://i.imgur.com/BFYgn93.png&lt;/a&gt;","torrent":{"xt":"urn:btih:e174021e53e460918ee8b7161608364e62b3f527","amp;dn":"Submission+2013++DVDrip+Xvid+Ac3+MiLLENiUM","amp;tr":["udp%3A%2F%2Ftracker.openbittorrent.com%3A80","udp%3A%2F%2Fopen.demonii.com%3A1337","udp%3A%2F%2Ftracker.coppersurfer.tk%3A6969","udp%3A%2F%2Fexodus.desync.com%3A6969"],"infoHash":"e174021e53e460918ee8b7161608364e62b3f527","infoHashBuffer":{"type":"Buffer","data":[225,116,2,30,83,228,96,145,142,232,183,22,22,8,54,78,98,179,245,39]},"announce":[],"urlList":[]}}